#!OML:ASF F:\VICON\USERDATA\INSTALL\rory3\rory3.ASF
:FULLY-SPECIFIED
:DEGREES
359
root 1.65432 18.0262 30.4802 -156.225 -10.6619 -176.367
lowerback -8.93549 -2.65159 0.365322
upperback -9.2847 -4.67039 2.64457
thorax -4.49858 -2.78429 2.35581
lowerneck -15.4008 -1.09604 1.74273
upperneck 32.7441 0.437808 -0.0372717
head 13.6472 1.32687 -0.0250325
rclavicle 4.14715e-014 1.03368e-014
rhumerus -164.825 -65.8863 145.339
rradius 13.7901
rwrist 107.221
rhand -6.1663 4.25399
rfingers 7.12502
rthumb 19.6725 -24.7706
lclavicle 4.14715e-014 1.03368e-014
lhumerus 49.3898 -29.2167 28.8749
lradius 21.0723
lwrist -38.097
lhand 2.88099 31.9102
lfingers 7.12502
lthumb 28.3468 59.7844
rfemur -65.0106 11.3473 11.3382
rtibia 45.4878
rfoot -21.5662 -36.4388
rtoes 52.8713
lfemur -28.3469 -6.09999 -22.0905
ltibia 37.1078
lfoot -8.32969 27.5152
ltoes -18.3616
360
root 1.64751 17.9934 30.4789 -155.691 -9.94769 -176.751
lowerback -8.95872 -2.56187 -0.180868
upperback -9.3195 -4.53151 2.55173
thorax -4.4982 -2.69053 2.57014
lowerneck -15.5744 -1.04789 1.75373
upperneck 32.8072 0.482386 -0.00579735
head 13.7137 1.3469 -0.00699227
rclavicle -1.8838e-014 -2.78299e-015
rhumerus -163.848 -67.0751 144.342
rradius 13.6502
rwrist 106.1
rhand -6.24013 3.57783
rfingers 7.12502
rthumb 19.6015 -25.454
lclavicle -1.8838e-014 -2.78299e-015
lhumerus 48.5026 -28.518 29.8937
lradius 20.8903
lwrist -39.5563
lhand 2.75859 31.3315
lfingers 7.12502
lthumb 28.2298 59.2251
rfemur -65.7442 9.76622 11.9374
rtibia 45.5484
rfoot -18.2799 -36.6464
rtoes 52.0615
lfemur -28.6148 -6.30567 -22.7229
ltibia 37.0024
lfoot -8.78966 27.9495
ltoes -19.6043
361
root 1.63692 17.9595 30.478 -154.99 -9.21046 -176.359
lowerback -9.12915 -2.25986 0.106741
upperback -9.47595 -4.19327 2.64201
thorax -4.59836 -2.5561 2.52264
lowerneck -15.989 -0.987752 1.77926
upperneck 33.0344 0.575209 -0.0632475
head 13.9068 1.38111 -0.0153811
rclavicle -2.81094e-014 -1.59028e-014
rhumerus -164.468 -66.413 144.999
rradius 13.6716
rwrist 106.891
rhand -6.39621 3.95982
rfingers 7.12502
rthumb 19.4514 -25.0872
lclavicle -2.81094e-014 -1.59028e-014
lhumerus 47.6696 -28.1317 30.5282
lradius 20.8794
lwrist -40.7405
lhand 2.68117 30.6292
lfingers 7.12502
lthumb 28.1558 58.535
rfemur -66.8034 7.99793 13.7414
rtibia 45.5859
rfoot -12.5096 -37.1448
rtoes 50.016
lfemur -29.2533 -6.49206 -22.5124
ltibia 36.9042
lfoot -9.51148 28.5216
ltoes -20.3902
362
root 1.64279 17.9281 30.4392 -154.524 -8.7897 -176.545
lowerback -9.03738 -2.21794 -0.373684
upperback -9.61966 -4.13561 2.71026
thorax -4.77281 -2.50699 2.87949
lowerneck -16.7046 -0.926302 1.73316
upperneck 33.4868 0.680578 -0.0545209
head 14.2703 1.42697 0.0233646
rclavicle 4.98204e-015 -1.09332e-014
rhumerus -163.658 -66.9784 144.266
rradius 13.6626
rwrist 106.473
rhand -6.05045 4.74231
rfingers 7.12502
rthumb 19.7839 -24.2708
lclavicle 4.98204e-015 -1.09332e-014
lhumerus 47.1538 -28.4435 30.3338
lradius 20.839
lwrist -40.8276
lhand 2.36992 30.6674
lfingers 7.12502
lthumb 27.8583 58.6218
rfemur -67.4016 7.66646 13.787
rtibia 45.7611
rfoot -12.1282 -37.1343
rtoes 50.0759
lfemur -29.3465 -6.88095 -22.6823
ltibia 36.7313
lfoot -10.5968 28.6332
ltoes -20.3338
363
root 1.67067 17.9099 30.37 -154.504 -8.74876 -176.791
lowerback -9.40454 -2.42492 -1.11911
upperback -9.20408 -4.29948 2.8238
thorax -4.06236 -2.5248 3.3507
lowerneck -17.3324 -0.734578 1.7758
upperneck 33.4473 0.838243 -0.00947559
head 14.3963 1.47266 0.0572418
rclavicle -3.32343e-014 -1.18277e-014
rhumerus -163.187 -67.0222 143.774
rradius 13.6791
rwrist 106.09
rhand -5.58502 5.51003
rfingers 7.12502
rthumb 20.2312 -23.4564
lclavicle -3.32343e-014 -1.18277e-014
lhumerus 46.7629 -27.8076 30.8655
lradius 20.2071
lwrist -41.9957
lhand 1.84508 30.6936
lfingers 7.12502
lthumb 27.3564 58.7282
rfemur -67.2883 8.41654 13.0691
rtibia 45.9751
rfoot -15.2199 -36.9247
rtoes 51.468
lfemur -28.8944 -7.08632 -22.7386
ltibia 36.583
lfoot -11.0897 28.3853
ltoes -21.1399
364
root 1.68049 17.8879 30.3373 -153.699 -8.24349 -176.635
lowerback -9.96065 -2.27548 -1.28154
upperback -9.35519 -4.14901 2.96633
thorax -3.91156 -2.46597 3.57481
lowerneck -17.4274 -0.679482 1.6306
upperneck 33.3694 0.925589 0.0219523
head 14.383 1.48319 0.10738
rclavicle -1.33061e-014 -1.19271e-015
rhumerus -162.588 -66.5584 143.32
rradius 13.7218
rwrist 106.31
rhand -5.39372 6.41882
rfingers 7.12502
rthumb 20.4151 -22.528
lclavicle -1.33061e-014 -1.19271e-015
lhumerus 45.9057 -27.3402 31.8375
lradius 19.5637
lwrist -43.6828
lhand 1.62913 29.9988
lfingers 7.12502
lthumb 27.1499 58.0659
rfemur -68.2 7.29963 14.3341
rtibia 46.2231
rfoot -10.9819 -36.9946
rtoes 50.0147
lfemur -29.5716 -7.23859 -22.5401
ltibia 36.4555
lfoot -11.3833 28.7499
ltoes -22.179
365
root 1.68904 17.8779 30.2967 -153.211 -8.16107 -176.595
lowerback -10.0231 -2.19844 -1.39565
upperback -9.5642 -4.0844 3.02277
thorax -4.09719 -2.44202 3.71222
lowerneck -17.3354 -0.831061 1.39789
upperneck 33.3383 0.717318 0.196629
head 14.3449 1.38969 0.182557
rclavicle 1.39398e-014 2.54444e-014
rhumerus -162.505 -64.8964 143.472
rradius 13.8356
rwrist 107.69
rhand -5.68708 6.16758
rfingers 7.12502
rthumb 20.1331 -22.8092
lclavicle 1.39398e-014 2.54444e-014
lhumerus 45.0835 -27.0711 32.8566
lradius 18.8342
lwrist -45.1257
lhand 1.42246 28.8811
lfingers 7.12502
lthumb 26.9521 56.9789
rfemur -68.6489 6.20125 15.4484
rtibia 46.5264
rfoot -8.26846 -36.7643
rtoes 49.0599
lfemur -29.8744 -7.58445 -22.3473
ltibia 36.352
lfoot -11.5017 29.0009
ltoes -23.1635
366
root 1.699 17.8735 30.2431 -153.053 -8.2911 -176.626
lowerback -10.0279 -2.18784 -1.52641
upperback -9.55492 -4.05648 2.97459
thorax -4.08289 -2.41999 3.736
lowerneck -17.1958 -0.884255 1.5359
upperneck 33.0989 0.515466 0.317965
head 14.2041 1.32581 0.166952
rclavicle -3.03644e-014 -6.55989e-015
rhumerus -162.805 -62.373 143.917
rradius 14.0032
rwrist 109.712
rhand -6.40707 4.49374
rfingers 7.12502
rthumb 19.441 -24.5544
lclavicle -3.03644e-014 -6.55989e-015
lhumerus 44.8203 -27.4834 32.8041
lradius 18.2353
lwrist -45.2312
lhand 0.376011 28.0608
lfingers 7.12502
lthumb 25.9505 56.3093
rfemur -68.5742 5.56796 16.1264
rtibia 46.8007
rfoot -6.92378 -36.5117
rtoes 48.2814
lfemur -29.8478 -8.00109 -22.1876
ltibia 36.4007
lfoot -11.6069 29.1875
ltoes -23.9646
367
root 1.70611 17.8672 30.1928 -152.783 -8.38602 -176.603
lowerback -10.1573 -2.16855 -1.5292
upperback -9.60232 -4.0438 2.93431
thorax -4.06685 -2.4207 3.6914
lowerneck -16.8545 -0.864276 1.74695
upperneck 32.7503 0.42913 0.375453
head 13.9723 1.31049 0.130121
rclavicle 3.35884e-014 -1.44119e-014
rhumerus -162.764 -60.3688 143.863
rradius 14.1274
rwrist 111.22
rhand -7.12308 2.62597
rfingers 7.12502
rthumb 18.7524 -26.4901
lclavicle 3.35884e-014 -1.44119e-014
lhumerus 43.4739 -26.8004 34.4963
lradius 18.1076
lwrist -47.8489
lhand 0.0372797 28.221
lfingers 7.12502
lthumb 25.6261 56.5166
rfemur -68.5736 4.82251 16.968
rtibia 47.0777
rfoot -5.01162 -35.9762
rtoes 47.1832
lfemur -30.0233 -8.42223 -21.9845
ltibia 36.4858
lfoot -11.904 29.4202
ltoes -23.7638
